<svg width="120" height="120" viewBox="0 0 120 120" xmlns="http://www.w3.org/2000/svg">
  <defs>
    <linearGradient id="shieldGradient" x1="0%" y1="0%" x2="100%" y2="100%">
      <stop offset="0%" style="stop-color:#00ff41;stop-opacity:1" />
      <stop offset="50%" style="stop-color:#238636;stop-opacity:1" />
      <stop offset="100%" style="stop-color:#00ff41;stop-opacity:1" />
    </linearGradient>
    <filter id="glow">
      <feGaussianBlur stdDeviation="3" result="coloredBlur"/>
      <feMerge> 
        <feMergeNode in="coloredBlur"/>
        <feMergeNode in="SourceGraphic"/>
      </feMerge>
    </filter>
  </defs>
  
  <!-- Outer glow circle -->
  <circle cx="60" cy="60" r="55" fill="none" stroke="#00ff41" stroke-width="2" opacity="0.3" filter="url(#glow)">
    <animate attributeName="r" values="55;58;55" dur="2s" repeatCount="indefinite"/>
    <animate attributeName="opacity" values="0.3;0.1;0.3" dur="2s" repeatCount="indefinite"/>
  </circle>
  
  <!-- Main shield shape -->
  <path d="M60 10 L90 25 L90 55 Q90 80 60 105 Q30 80 30 55 L30 25 Z" 
        fill="url(#shieldGradient)" 
        stroke="#00ff41" 
        stroke-width="2" 
        filter="url(#glow)"/>
  
  <!-- Inner shield details -->
  <path d="M60 20 L80 30 L80 50 Q80 70 60 90 Q40 70 40 50 L40 30 Z" 
        fill="none" 
        stroke="#0d1117" 
        stroke-width="2"/>
  
  <!-- Circuit pattern -->
  <g stroke="#0d1117" stroke-width="1.5" fill="none">
    <!-- Horizontal lines -->
    <line x1="45" y1="35" x2="55" y2="35"/>
    <line x1="65" y1="35" x2="75" y2="35"/>
    <line x1="50" y1="45" x2="70" y2="45"/>
    <line x1="45" y1="55" x2="75" y2="55"/>
    <line x1="50" y1="65" x2="70" y2="65"/>
    
    <!-- Vertical lines -->
    <line x1="50" y1="30" x2="50" y2="40"/>
    <line x1="60" y1="25" x2="60" y2="50"/>
    <line x1="70" y1="30" x2="70" y2="70"/>
    <line x1="55" y1="50" x2="55" y2="70"/>
    <line x1="65" y1="60" x2="65" y2="75"/>
    
    <!-- Connection nodes -->
    <circle cx="50" cy="35" r="1.5" fill="#0d1117"/>
    <circle cx="60" cy="45" r="1.5" fill="#0d1117"/>
    <circle cx="70" cy="35" r="1.5" fill="#0d1117"/>
    <circle cx="55" cy="55" r="1.5" fill="#0d1117"/>
    <circle cx="65" cy="55" r="1.5" fill="#0d1117"/>
    <circle cx="60" cy="65" r="1.5" fill="#0d1117"/>
  </g>
  
  <!-- Central warning symbol -->
  <g transform="translate(60,60)">
    <polygon points="0,-12 10,8 -10,8" 
             fill="#0d1117" 
             stroke="#00ff41" 
             stroke-width="1"/>
    <text x="0" y="2" 
          font-family="Fira Code, monospace" 
          font-size="12" 
          font-weight="bold" 
          text-anchor="middle" 
          fill="#00ff41">!</text>
  </g>
  
  <!-- Binary code animation -->
  <g font-family="Fira Code, monospace" font-size="6" fill="#00ff41" opacity="0.7">
    <text x="15" y="25">101</text>
    <text x="95" y="30">011</text>
    <text x="20" y="90">110</text>
    <text x="90" y="95">001</text>
    
    <animateTransform attributeName="transform" 
                      type="rotate" 
                      values="0 60 60;360 60 60" 
                      dur="20s" 
                      repeatCount="indefinite"/>
  </g>
  
  <!-- Scanning line effect -->
  <line x1="30" y1="30" x2="90" y2="90" stroke="#00ff41" stroke-width="1" opacity="0.8">
    <animate attributeName="x1" values="30;90;30" dur="3s" repeatCount="indefinite"/>
    <animate attributeName="y1" values="30;90;30" dur="3s" repeatCount="indefinite"/>
    <animate attributeName="x2" values="90;30;90" dur="3s" repeatCount="indefinite"/>
    <animate attributeName="y2" values="90;30;90" dur="3s" repeatCount="indefinite"/>
    <animate attributeName="opacity" values="0.8;0.2;0.8" dur="3s" repeatCount="indefinite"/>
  </line>
</svg>
